<svg width="136" height="120" viewBox="0 0 136 120" fill="none" xmlns="http://www.w3.org/2000/svg">
<path d="M81.0306 43.4286H61.983L61.7873 57.7143C62.7875 57.2063 63.8747 56.8677 65.0489 56.6984C66.223 56.5291 67.3754 56.4444 68.5061 56.4444C70.724 56.4444 72.7027 56.8466 74.4422 57.6508C76.2252 58.4127 77.7255 59.4709 78.9432 60.8254C80.2043 62.1799 81.1611 63.7672 81.8134 65.5873C82.5092 67.3651 82.8571 69.2698 82.8571 71.3016C82.8571 73.7143 82.4005 75.8307 81.4872 77.6508C80.6175 79.4709 79.465 80.9735 78.0299 82.1587C76.5948 83.3439 75.0075 84.2328 73.268 84.8254C71.5285 85.418 69.8108 85.7143 68.1147 85.7143C64.7227 85.7143 61.8743 85.037 59.5694 83.6825C57.308 82.328 55.5468 80.4656 54.2856 78.0952L58.33 76.127C58.7214 76.9735 59.2432 77.7778 59.8956 78.5397C60.5914 79.2593 61.3741 79.9153 62.2439 80.5079C63.1137 81.0582 64.0486 81.5026 65.0489 81.8413C66.0491 82.1376 67.071 82.2857 68.1147 82.2857C69.1584 82.2857 70.2891 82.0741 71.5068 81.6508C72.7244 81.1852 73.8551 80.5079 74.8988 79.619C75.9425 78.7302 76.8123 77.6085 77.5081 76.254C78.2039 74.8995 78.5518 73.3333 78.5518 71.5556C78.5518 69.9471 78.2474 68.4444 77.6385 67.0476C77.0732 65.6085 76.2687 64.3598 75.225 63.3016C74.1813 62.2434 72.9419 61.418 71.5068 60.8254C70.1152 60.1905 68.5931 59.873 66.9406 59.873C65.288 59.873 63.679 60.1693 62.1134 60.7619C60.5479 61.3122 59.1128 62.0317 57.8081 62.9206L58.1995 40H81.0306V43.4286Z" fill="white"/>
<path d="M20.9962 56.9503L20.9963 56.9504C21.6966 56.252 21.6966 55.1194 20.9963 54.421C15.2383 48.6789 15.2374 39.343 20.9963 33.6165C21.6966 32.9182 21.6966 31.7855 20.9963 31.0871C20.2952 30.388 19.157 30.388 18.4559 31.0871C14.9824 34.5511 13.0748 39.1278 13.0748 44.018L20.9962 56.9503ZM20.9962 56.9503L20.9893 56.9574M20.9962 56.9503L20.9893 56.9574M20.9893 56.9574C20.6541 57.3052 20.1968 57.4783 19.7267 57.4783C19.2627 57.4783 18.8167 57.3089 18.4572 56.9504M20.9893 56.9574L18.4572 56.9504M18.4572 56.9504C14.9836 53.4861 13.076 48.9106 13.0748 44.0182L18.4572 56.9504ZM114.544 102.725C114.545 102.726 114.545 102.726 114.546 102.727C114.546 102.728 114.547 102.728 114.548 102.729L114.938 102.417L114.544 102.725ZM56.2253 105.642H55.6143L55.7351 106.241C56.8463 111.748 61.7483 115.915 67.6189 115.915C73.4896 115.915 78.3914 111.749 79.5039 106.241L79.6249 105.642H79.0138H56.2253ZM33.0711 88.426L32.9378 88.762C31.1933 93.1611 28.9622 97.3598 26.2624 101.272L25.7215 102.056H26.6739H108.548H109.497L108.96 101.274C106.277 97.3599 104.046 93.1783 102.302 88.7626C99.838 82.4938 98.3796 75.9254 97.9924 69.1909V50.7448C97.9924 34.0459 84.3606 20.4549 67.6201 20.4549C50.8785 20.4549 37.2479 34.0472 37.2479 50.7448V69.0725C36.8684 75.8046 35.4705 82.2759 33.0711 88.426ZM12.0792 65.8238C11.7604 66.1546 11.331 66.3274 10.8853 66.3434H10.8166C10.3472 66.3434 9.89043 66.1707 9.5523 65.8209L9.55236 65.8209L9.54584 65.8144C-2.51528 53.7871 -2.51529 34.2116 9.54585 22.1837C10.2469 21.4846 11.3851 21.4846 12.0862 22.1837C12.7865 22.8821 12.7865 24.0147 12.0862 24.7131L12.0859 24.7134C1.42606 35.3626 1.42562 52.6562 12.0862 63.2874C12.7865 63.9857 12.7865 65.1184 12.0862 65.8168L12.0861 65.8167L12.0792 65.8238ZM123.153 24.7331C122.466 24.0481 122.453 22.9451 123.114 22.2441L123.153 22.205C123.854 21.5058 124.991 21.5058 125.692 22.2059L125.692 22.2061C137.753 34.2334 137.753 53.8089 125.692 65.8368L125.692 65.8367L125.685 65.8438C125.35 66.1916 124.893 66.3647 124.423 66.3647C123.959 66.3647 123.513 66.1953 123.153 65.8368C122.453 65.1384 122.453 64.0058 123.153 63.3074L123.153 63.3071C133.813 52.6579 133.814 35.3643 123.153 24.7331ZM116.781 56.9504L116.781 56.9503L116.774 56.9574C116.439 57.3052 115.981 57.4783 115.511 57.4783C115.047 57.4783 114.601 57.3089 114.242 56.9504C113.541 56.2522 113.541 55.1212 114.24 54.4227C119.999 48.6963 119.998 39.36 114.24 33.6178C113.54 32.9194 113.54 31.7867 114.24 31.0883C114.941 30.3892 116.08 30.3892 116.781 31.0883L116.782 31.0891C120.254 34.536 122.162 39.1284 122.162 44.0194C122.162 48.9097 120.254 53.4864 116.781 56.9504ZM74.0186 10.4696C74.0186 6.95688 71.1578 4.08621 67.6189 4.08621C64.0802 4.08621 61.2192 6.95561 61.2192 10.4696C61.2192 13.9833 64.0976 16.8531 67.6189 16.8531C71.1389 16.8531 74.0186 13.9846 74.0186 10.4696Z" fill="white" stroke="#1E2328"/>
</svg>
