<svg width="123" height="120" viewBox="0 0 123 120" fill="none" xmlns="http://www.w3.org/2000/svg">
<path d="M1.4171 0C0.657719 0 0 0.658578 0 1.46762V118.583C0 119.342 0.657719 120 1.4171 120H121.44C122.199 120 122.857 119.342 122.857 118.583C122.857 117.773 122.199 117.166 121.44 117.166H2.83301V1.46897C2.83401 0.659929 2.22611 0.00135246 1.4159 0.00135246L1.4171 0ZM68.1866 15.1335C68.1866 15.7911 68.6929 16.3989 69.3506 16.5503L79.627 19.2833L20.8044 47.2716C20.045 47.5755 19.6405 48.5369 19.9942 49.2454C20.349 50.0046 21.3615 50.2577 22.07 49.8531L81.2473 21.6124L78.4121 32.2404C78.2098 32.9488 78.6653 33.8096 79.4247 34.0119C80.1332 34.2142 80.9434 33.708 81.1457 32.9996L84.8919 19.233C85.0433 18.5246 84.5879 17.7146 83.8285 17.5123L70.059 13.7669C68.9957 13.5138 68.2363 14.1714 68.1855 15.1339L68.1866 15.1335ZM95.7241 37.1497C94.7624 37.1497 94.307 37.9089 94.307 38.5665V101.427C94.307 102.186 94.9647 102.844 95.7241 102.844H107.165C107.873 102.844 108.582 102.186 108.582 101.427V38.5665C108.582 37.8581 107.873 37.1497 107.165 37.1497H95.7241ZM97.1412 40.0342H105.697V100.008H97.1412V40.0342ZM70.0068 45.7025C69.0452 45.7533 68.5897 46.5125 68.5897 47.1701V101.425C68.5897 102.184 69.2475 102.842 70.0068 102.842H81.4474C82.1559 102.842 82.8645 102.184 82.8645 101.425V47.1701C82.8645 46.4109 82.1559 45.7025 81.4474 45.7025H70.0068ZM71.4239 48.587H79.9793V100.008H71.4239V48.587ZM44.2896 54.3061C43.3279 54.3061 42.8725 55.0653 42.8725 55.7229V101.425C42.8725 102.185 43.5302 102.842 44.2896 102.842H55.7301C56.4386 102.842 57.1472 102.185 57.1472 101.425V55.7229C57.1472 54.9637 56.4387 54.3061 55.7301 54.3061H44.2896ZM45.7067 57.1406H54.2621V100.009H45.7067V57.1406ZM18.5723 62.8597C17.6106 62.8597 17.1552 63.6189 17.1552 64.2765V101.424C17.1552 102.183 17.8129 102.841 18.5723 102.841H30.0128C30.7214 102.841 31.4299 102.183 31.4299 101.424V64.2765C31.4299 63.5681 30.7214 62.8597 30.0128 62.8597H18.5723ZM19.9894 65.7442H28.5448V100.007H19.9894V65.7442Z" fill="white"/>
</svg>
