<svg width="113" height="120" viewBox="0 0 113 120" fill="none" xmlns="http://www.w3.org/2000/svg">
<path d="M103.073 28.3413V4.53646C103.073 3.69388 102.387 3.0099 101.543 3.0099C100.7 3.0099 100.014 3.69388 100.014 4.53646V36.1479H93.9811V4.53646C93.9811 3.69388 93.2947 3.0099 92.4514 3.0099C91.6081 3.0099 90.9217 3.69388 90.9217 4.53646V36.1479H84.7065V4.53646C84.7065 3.69388 84.0201 3.0099 83.1769 3.0099C82.3336 3.0099 81.6472 3.69388 81.6472 4.53646V9.86896C65.7455 2.24986 46.9338 2.83219 31.5657 11.4487C28.1935 5.15552 22.9673 0 17.6609 0C10.6207 0 3.71561 9.06964 1.10407 17.8365C-1.19001 25.5417 0.156139 34.3107 4.53594 40.1757C5.11681 40.9551 5.75181 41.6446 6.40884 42.2918C1.92714 56.3912 3.35965 71.7439 10.4207 84.6791L9.01214 105.891C8.70657 110.501 10.0454 114.998 12.5037 117.627C13.959 119.179 15.7164 120 17.5809 120C19.4501 120 21.2075 119.18 22.6619 117.625C25.1202 114.998 26.46 110.501 26.1534 105.891L25.9231 102.43C35.4226 109.43 46.7295 113.042 58.1181 113.042C66.821 113.042 75.5467 110.931 83.5265 106.699C83.5228 110.999 84.8048 115.078 87.1181 117.547C88.6221 119.151 90.4309 119.999 92.3595 119.999C94.2847 119.999 96.0942 119.153 97.5974 117.55C100.149 114.827 101.537 110.164 101.22 105.382L100.384 92.819C115.315 74.349 116.421 48.0166 103.073 28.3404L103.073 28.3413ZM101.543 39.2016C102.387 39.2016 103.073 38.5176 103.073 37.675V34.2294C112.362 51.2361 111.248 72.2885 100.078 88.1881L98.5106 64.6414C98.4574 63.8786 97.8508 63.2964 97.1002 63.2377V39.2029L101.543 39.2016ZM90.6833 39.2016H94.0409V63.2129H90.6833V39.2016ZM4.03733 18.7072C6.28279 11.1477 12.2969 3.05376 17.6624 3.05376C23.0269 3.05376 29.0412 11.1477 31.2874 18.71C33.3172 25.5221 32.1601 33.233 28.34 38.3528C26.4707 40.854 23.1058 43.8365 17.6624 43.8365C12.2189 43.8365 8.85402 40.8549 6.9848 38.3528C3.16462 33.2323 2.00743 25.5212 4.03733 18.7072ZM16.2668 46.8096C16.7283 46.8463 17.1881 46.8866 17.6616 46.8866C17.8607 46.8866 18.0506 46.861 18.247 46.8546V65.3163H16.2658L16.2668 46.8096ZM8.99356 44.3845C10.2984 45.229 11.7106 45.8524 13.2082 46.2696V65.3156H13.1412C12.3355 65.3156 11.6711 65.9381 11.6151 66.7413L10.8342 78.5017C6.33516 67.7461 5.69361 55.6838 8.99348 44.3835L8.99356 44.3845ZM20.4301 115.541C18.6839 117.408 16.4871 117.408 14.7407 115.541C12.8642 113.541 11.8154 109.833 12.0658 106.094L14.569 68.3678H20.5969L22.6524 99.2939C22.6524 99.2966 22.6534 99.2994 22.6534 99.303L23.1048 106.093C23.3554 109.832 22.3065 113.539 20.4299 115.541L20.4301 115.541ZM25.6579 98.3836L23.5538 66.7417C23.4978 65.9385 22.8335 65.3159 22.0278 65.3159H21.3074V46.4883C25.056 45.6585 28.2898 43.524 30.7874 40.1756C35.1674 34.3105 36.5144 25.5416 34.2193 17.8382C33.8623 16.6389 33.4109 15.4396 32.9034 14.2534C47.8646 5.77524 66.3083 5.40204 81.6482 13.3081V37.6739C81.6482 38.5165 82.3346 39.2005 83.1779 39.2005H87.6248L87.6239 63.233C86.8714 63.2898 86.263 63.8739 86.2098 64.6376L83.6504 103.14C65.2298 113.749 42.1105 111.857 25.657 98.381L25.6579 98.3836ZM95.3689 115.465C93.5226 117.437 91.1909 117.431 89.3511 115.463C87.3892 113.368 86.2918 109.491 86.5532 105.584L89.1648 66.265H95.5552L97.2941 92.4146C97.295 92.477 97.2968 92.5375 97.306 92.5989L98.1695 105.583C98.431 109.491 97.3308 113.369 95.3689 115.465Z" fill="white"/>
<path d="M61.7418 35.5287C55.4571 34.5431 49.1645 36.084 44.0306 39.8421C33.4323 47.5945 31.1182 62.5198 38.8709 73.1161C43.5337 79.4802 50.7828 82.8571 58.1253 82.8571C63.0065 82.8571 67.9292 81.3653 72.1597 78.2708C82.758 70.5203 85.0721 55.5931 77.3194 44.9968C73.5629 39.8654 68.0311 36.5015 61.742 35.5287H61.7418ZM70.3376 75.7844C61.1204 82.5309 48.1147 80.5235 41.3625 71.2961C34.6106 62.0723 36.6239 49.0776 45.852 42.3292C49.4427 39.701 53.6834 38.324 58.0499 38.324C59.1191 38.324 60.1947 38.4064 61.2714 38.5739C66.7432 39.4207 71.5604 42.3498 74.8271 46.8176C81.5791 56.0415 79.5657 69.036 70.3376 75.7844Z" fill="white"/>
</svg>
