<svg width="120" height="120" viewBox="0 0 120 120" fill="none" xmlns="http://www.w3.org/2000/svg">
<path fill-rule="evenodd" clip-rule="evenodd" d="M36.1716 28.4388H83.833C85.9552 28.4388 87.8873 29.3081 89.2898 30.7088V30.7122L89.3131 30.7338C90.7008 32.1336 91.5597 34.0562 91.5597 36.1663V83.8261C91.5597 85.9482 90.6904 87.8802 89.2896 89.2826V89.2861L89.2663 89.3077C87.8665 90.6954 85.9438 91.5542 83.8337 91.5542L36.1722 91.5559C34.05 91.5559 32.1179 90.6867 30.7155 89.286V89.2825L30.6921 89.2609C29.3044 87.8611 28.4455 85.9385 28.4455 83.8285V36.1687C28.4455 34.0465 29.3148 32.1145 30.7156 30.7121V30.7086L30.7389 30.687C32.1387 29.2994 34.0615 28.4405 36.1716 28.4405V28.4388ZM83.833 30.5558L36.1716 30.5566C34.6266 30.5566 33.2224 31.1874 32.208 32.2018V32.2052C31.1927 33.2197 30.5627 34.6239 30.5627 36.1687V83.8285C30.5627 85.3735 31.1927 86.7776 32.208 87.792V87.7954C33.2224 88.8107 34.6266 89.4415 36.1716 89.4415H83.833C85.378 89.4415 86.7821 88.8116 87.7966 87.7954V87.792C88.8119 86.7776 89.4418 85.3734 89.4418 83.8285V36.1687C89.4418 34.6238 88.8119 33.2197 87.7966 32.2052V32.2018C86.7822 31.1865 85.3779 30.5566 83.833 30.5566V30.5558ZM23.5561 12.2921H29.6919V1.05849C29.6919 0.474386 30.1663 0 30.7505 0C31.3346 0 31.809 0.474364 31.809 1.05849V12.2921H49.1893V1.05849C49.1893 0.474386 49.6637 0 50.2478 0C50.8319 0 51.3063 0.474364 51.3063 1.05849V12.2921H68.6928V1.05849C68.6928 0.474386 69.1672 0 69.7513 0C70.3355 0 70.8099 0.474364 70.8099 1.05849V12.2921H88.1911V1.05849C88.1911 0.474386 88.6654 0 89.2496 0C89.8337 0 90.3081 0.474364 90.3081 1.05849V12.2921H96.444C99.5435 12.2921 102.36 13.5597 104.4 15.5989C106.439 17.638 107.707 20.4566 107.707 23.5552V29.6909H118.941C119.526 29.6909 120 30.1652 120 30.7493C120 31.3335 119.526 31.8078 118.941 31.8078H107.707V49.1893H118.941C119.526 49.1893 120 49.6637 120 50.2478C120 50.8319 119.526 51.3063 118.941 51.3063H107.707V68.6922H118.941C119.526 68.6922 120 69.1665 120 69.7507C120 70.3348 119.526 70.8092 118.941 70.8092H107.707V88.1889H118.941C119.526 88.1889 120 88.6632 120 89.2473C120 89.8315 119.526 90.3058 118.941 90.3058H107.707V96.4415C107.707 99.5409 106.439 102.358 104.4 104.397C102.36 106.436 99.5435 107.705 96.444 107.705H90.3081V118.938C90.3081 119.522 89.8337 119.997 89.2496 119.997C88.6654 119.997 88.1911 119.522 88.1911 118.938L88.1928 107.708H70.8107V118.942C70.8107 119.526 70.3363 120 69.7522 120C69.168 120 68.6937 119.526 68.6937 118.942V107.708H51.3072V118.942C51.3072 119.526 50.8328 120 50.2486 120C49.6645 120 49.1901 119.526 49.1901 118.942V107.708H31.8098V118.942C31.8098 119.526 31.3354 120 30.7513 120C30.1672 120 29.6928 119.526 29.6928 118.942V107.708H23.5569C20.4573 107.708 17.6396 106.439 15.6003 104.4C13.561 102.361 12.2934 99.5443 12.2934 96.4448V90.3091L1.05852 90.3083C0.474403 90.3083 0 89.8339 0 89.2498C0 88.6657 0.474381 88.1913 1.05852 88.1913H12.2917V70.8116H1.05852C0.474403 70.8116 0 70.3372 0 69.7531C0 69.169 0.474381 68.6946 1.05852 68.6946L12.2917 68.6938V51.3079H1.05852C0.474403 51.3079 0 50.8335 0 50.2494C0 49.6653 0.474381 49.1909 1.05852 49.1909H12.2917V31.8094H1.05852C0.474403 31.8094 0 31.3351 0 30.7509C0 30.1668 0.474381 29.6925 1.05852 29.6925H12.2917V23.5568C12.2917 20.4591 13.5593 17.6397 15.5985 15.6005C17.6377 13.5612 20.4573 12.2937 23.5551 12.2937L23.5561 12.2921ZM96.4463 14.41H23.5627C21.0491 14.41 18.7618 15.4399 17.1037 17.0971C15.4455 18.7544 14.4155 21.0424 14.4155 23.5559V96.4569C14.4155 98.9704 15.4455 101.257 17.1028 102.914C18.7601 104.571 21.0482 105.603 23.5618 105.603H96.4454C98.9572 105.603 101.245 104.572 102.903 102.914C104.56 101.257 105.592 98.9686 105.592 96.4569V23.5559C105.592 21.0424 104.561 18.7552 102.903 17.0971C101.245 15.4398 98.959 14.41 96.4454 14.41H96.4463ZM89.2796 14.41H89.2234H89.2796ZM69.7797 14.41H69.7235H69.7797ZM50.2754 14.41H50.2192H50.2754ZM30.7761 14.41H30.72H30.7761ZM105.59 89.2774V89.2186V89.2774ZM105.59 69.7762V69.7175V69.7762ZM105.59 50.27V50.2112V50.27ZM105.59 30.7682V30.7094V30.7682ZM30.72 105.59H30.7761H30.72ZM50.2192 105.59H50.2754H50.2192ZM69.7244 105.59H69.7806H69.7244ZM89.2243 105.59H89.2805H89.2243ZM14.4104 30.7227V30.7815V30.7227ZM14.4104 50.2245V50.2833V50.2245ZM14.4104 69.7307V69.7895V69.7307ZM14.4104 89.2319V89.2906V89.2319Z" fill="white"/>
<path d="M50.3558 53.8875H42.7023L42.6228 59.1061C42.9759 58.9239 43.3643 58.8055 43.7881 58.7509C44.2294 58.678 44.6443 58.6416 45.0328 58.6416C45.9332 58.6416 46.7453 58.8055 47.4692 59.1334C48.2107 59.443 48.8463 59.8893 49.376 60.4722C49.9056 61.0368 50.3117 61.7108 50.5942 62.494C50.8767 63.2591 51.0179 64.097 51.0179 65.0077C51.0179 65.9731 50.8502 66.8565 50.5147 67.658C50.1969 68.4412 49.7467 69.1152 49.1641 69.6798C48.5991 70.2263 47.9194 70.6543 47.1249 70.964C46.3481 71.2736 45.5006 71.4285 44.5826 71.4285C43.1525 71.4285 41.996 71.1097 41.1133 70.4722C40.2482 69.8347 39.5596 68.9786 39.0476 67.9039L41.2722 67.0296C41.59 67.7582 42.049 68.3501 42.6493 68.8055C43.2672 69.2427 43.9734 69.4613 44.7679 69.4613C45.3329 69.4613 45.8537 69.3611 46.3304 69.1607C46.8248 68.9421 47.2485 68.6416 47.6016 68.2591C47.9724 67.8583 48.2637 67.3848 48.4755 66.8383C48.6874 66.2919 48.7933 65.6817 48.7933 65.0077C48.7933 64.2973 48.6698 63.6689 48.4226 63.1225C48.1931 62.576 47.8664 62.1206 47.4427 61.7563C47.0366 61.3738 46.5511 61.0915 45.9861 60.9093C45.4212 60.709 44.8121 60.6088 44.1588 60.6088C43.5232 60.6088 42.87 60.7272 42.1991 60.964C41.5282 61.1826 40.9102 61.4649 40.3453 61.811L40.5307 51.7563H50.3558V53.8875Z" fill="white"/>
<path d="M53.5249 61.4285C53.5249 60.3356 53.6132 59.1971 53.7897 58.0132C53.9663 56.8292 54.2929 55.7545 54.7696 54.7891C55.2463 53.8055 55.8907 53.0041 56.7029 52.3848C57.5327 51.7472 58.592 51.4285 59.8808 51.4285C61.1697 51.4285 62.2201 51.7472 63.0323 52.3848C63.8621 53.0041 64.5153 53.8055 64.992 54.7891C65.4687 55.7545 65.7953 56.8292 65.9719 58.0132C66.1485 59.1971 66.2367 60.3356 66.2367 61.4285C66.2367 62.5214 66.1485 63.6598 65.9719 64.8438C65.7953 66.0277 65.4687 67.1115 64.992 68.0951C64.5153 69.0605 63.8621 69.862 63.0323 70.4995C62.2201 71.1188 61.1697 71.4285 59.8808 71.4285C58.592 71.4285 57.5327 71.1188 56.7029 70.4995C55.8907 69.862 55.2463 69.0605 54.7696 68.0951C54.2929 67.1115 53.9663 66.0277 53.7897 64.8438C53.6132 63.6598 53.5249 62.5214 53.5249 61.4285ZM55.7495 61.4285C55.7495 61.9021 55.7671 62.4303 55.8024 63.0132C55.8377 63.596 55.8995 64.188 55.9878 64.7891C56.0937 65.372 56.235 65.9458 56.4115 66.5104C56.6058 67.0751 56.8529 67.576 57.1531 68.0132C57.4709 68.4503 57.8505 68.8055 58.2918 69.0787C58.7332 69.3337 59.2629 69.4613 59.8808 69.4613C60.4988 69.4613 61.0284 69.3337 61.4698 69.0787C61.9112 68.8055 62.2819 68.4503 62.5821 68.0132C62.8999 67.576 63.147 67.0751 63.3236 66.5104C63.5178 65.9458 63.6591 65.372 63.7473 64.7891C63.8533 64.188 63.9239 63.596 63.9592 63.0132C63.9945 62.4303 64.0122 61.9021 64.0122 61.4285C64.0122 60.9549 63.9945 60.4266 63.9592 59.8438C63.9239 59.2609 63.8533 58.678 63.7473 58.0951C63.6591 57.494 63.5178 56.9112 63.3236 56.3465C63.147 55.7818 62.8999 55.2809 62.5821 54.8438C62.2819 54.4066 61.9112 54.0605 61.4698 53.8055C61.0284 53.5323 60.4988 53.3957 59.8808 53.3957C59.2629 53.3957 58.7332 53.5323 58.2918 53.8055C57.8505 54.0605 57.4709 54.4066 57.1531 54.8438C56.8529 55.2809 56.6058 55.7818 56.4115 56.3465C56.235 56.9112 56.0937 57.494 55.9878 58.0951C55.8995 58.678 55.8377 59.2609 55.8024 59.8438C55.7671 60.4266 55.7495 60.9549 55.7495 61.4285Z" fill="white"/>
<path d="M68.2405 61.4285C68.2405 60.3356 68.3288 59.1971 68.5054 58.0132C68.6819 56.8292 69.0085 55.7545 69.4852 54.7891C69.9619 53.8055 70.6063 53.0041 71.4185 52.3848C72.2483 51.7472 73.3076 51.4285 74.5965 51.4285C75.8853 51.4285 76.9358 51.7472 77.7479 52.3848C78.5777 53.0041 79.231 53.8055 79.7077 54.7891C80.1844 55.7545 80.511 56.8292 80.6875 58.0132C80.8641 59.1971 80.9524 60.3356 80.9524 61.4285C80.9524 62.5214 80.8641 63.6598 80.6875 64.8438C80.511 66.0277 80.1844 67.1115 79.7077 68.0951C79.231 69.0605 78.5777 69.862 77.7479 70.4995C76.9358 71.1188 75.8853 71.4285 74.5965 71.4285C73.3076 71.4285 72.2483 71.1188 71.4185 70.4995C70.6063 69.862 69.9619 69.0605 69.4852 68.0951C69.0085 67.1115 68.6819 66.0277 68.5054 64.8438C68.3288 63.6598 68.2405 62.5214 68.2405 61.4285ZM70.4651 61.4285C70.4651 61.9021 70.4828 62.4303 70.5181 63.0132C70.5534 63.596 70.6152 64.188 70.7035 64.7891C70.8094 65.372 70.9506 65.9458 71.1272 66.5104C71.3214 67.0751 71.5686 67.576 71.8687 68.0132C72.1865 68.4503 72.5661 68.8055 73.0075 69.0787C73.4489 69.3337 73.9785 69.4613 74.5965 69.4613C75.2144 69.4613 75.744 69.3337 76.1854 69.0787C76.6268 68.8055 76.9976 68.4503 77.2977 68.0132C77.6155 67.576 77.8627 67.0751 78.0392 66.5104C78.2334 65.9458 78.3747 65.372 78.463 64.7891C78.5689 64.188 78.6395 63.596 78.6748 63.0132C78.7101 62.4303 78.7278 61.9021 78.7278 61.4285C78.7278 60.9549 78.7101 60.4266 78.6748 59.8438C78.6395 59.2609 78.5689 58.678 78.463 58.0951C78.3747 57.494 78.2334 56.9112 78.0392 56.3465C77.8627 55.7818 77.6155 55.2809 77.2977 54.8438C76.9976 54.4066 76.6268 54.0605 76.1854 53.8055C75.744 53.5323 75.2144 53.3957 74.5965 53.3957C73.9785 53.3957 73.4489 53.5323 73.0075 53.8055C72.5661 54.0605 72.1865 54.4066 71.8687 54.8438C71.5686 55.2809 71.3214 55.7818 71.1272 56.3465C70.9506 56.9112 70.8094 57.494 70.7035 58.0951C70.6152 58.678 70.5534 59.2609 70.5181 59.8438C70.4828 60.4266 70.4651 60.9549 70.4651 61.4285Z" fill="white"/>
</svg>
