<svg width="115" height="115" viewBox="0 0 115 115" fill="none" xmlns="http://www.w3.org/2000/svg">
<g clip-path="url(#clip0_75_1072)">
<path d="M57.5 115C89.2564 115 115 89.2564 115 57.5C115 25.7436 89.2564 0 57.5 0C25.7436 0 0 25.7436 0 57.5C0 89.2564 25.7436 115 57.5 115Z" fill="url(#paint0_radial_75_1072)"/>
<path d="M77.2807 107.273C104.779 96.3519 118.218 65.2071 107.297 37.7087C96.3766 10.2103 65.2317 -3.22857 37.7334 7.69213C10.235 18.6128 -3.20391 49.7577 7.7168 77.256C18.6375 104.754 49.7823 118.193 77.2807 107.273Z" fill="url(#paint1_linear_75_1072)"/>
<path d="M57.5 101.051C45.8808 101.051 34.9564 96.5757 26.7408 88.4492C18.5248 80.3221 14 69.518 14 58.0255C14 46.5331 18.5248 35.7278 26.7408 27.6019C34.9575 19.4754 45.8808 15 57.5 15C69.1192 15 80.0436 19.4754 88.2592 27.6019C96.4752 35.729 101 46.5331 101 58.0255C101 69.518 96.4752 80.3233 88.2592 88.4492C80.0424 96.5757 69.1192 101.051 57.5 101.051ZM57.5 16.1079C34.1319 16.1079 15.1199 34.9125 15.1199 58.0257C15.1199 81.1389 34.1319 99.9436 57.5 99.9436C80.8681 99.9436 99.8801 81.1389 99.8801 58.0257C99.8801 34.9125 80.8681 16.1079 57.5 16.1079Z" fill="#6990AF" stroke="#6990AF"/>
<path d="M57.4999 80.7389C44.8378 80.7389 34.5364 70.5495 34.5364 58.0258C34.5364 50.7356 38.1129 43.8386 44.104 39.5757C44.3554 39.397 44.7054 39.4537 44.8861 39.7024C45.0668 39.951 45.0095 40.2972 44.7581 40.476C39.0591 44.5306 35.6566 51.0913 35.6566 58.0261C35.6566 69.9393 45.4555 79.6317 57.5004 79.6317C69.5453 79.6317 79.3442 69.9397 79.3442 58.0261C79.3442 50.7736 75.6936 44.0427 69.5793 40.0218C69.3219 39.8523 69.2519 39.5087 69.4233 39.2535C69.5946 38.9989 69.942 38.9296 70.2001 39.0991C76.6271 43.3265 80.4645 50.4017 80.4645 58.027C80.4645 70.551 70.1627 80.7401 57.5009 80.7401L57.4999 80.7389Z" fill="#6990AF" stroke="#6990AF"/>
<path d="M57.5 51.193C57.1906 51.193 56.9399 50.9451 56.9399 50.6391V28.4798C56.9399 28.1737 57.1907 27.9258 57.5 27.9258C57.8094 27.9258 58.0601 28.1738 58.0601 28.4798V50.6391C58.0601 50.9451 57.8094 51.193 57.5 51.193Z" fill="#6990AF" stroke="#6990AF"/>
</g>
<defs>
<radialGradient id="paint0_radial_75_1072" cx="0" cy="0" r="1" gradientUnits="userSpaceOnUse" gradientTransform="translate(49.3938 22.0309) scale(149.424)">
<stop stop-color="white"/>
<stop offset="1" stop-color="#C4BBBB"/>
</radialGradient>
<linearGradient id="paint1_linear_75_1072" x1="3.91796" y1="57.5079" x2="111.055" y2="57.5079" gradientUnits="userSpaceOnUse">
<stop stop-color="#C4BBBB"/>
<stop offset="1" stop-color="white"/>
</linearGradient>
<clipPath id="clip0_75_1072">
<rect width="115" height="115" fill="white"/>
</clipPath>
</defs>
</svg>
