<svg width="115" height="115" viewBox="0 0 115 115" fill="none" xmlns="http://www.w3.org/2000/svg">
<g clip-path="url(#clip0_75_1056)">
<path d="M57.5 115C89.2564 115 115 89.2564 115 57.5C115 25.7436 89.2564 0 57.5 0C25.7436 0 0 25.7436 0 57.5C0 89.2564 25.7436 115 57.5 115Z" fill="url(#paint0_radial_75_1056)"/>
<path d="M77.2807 107.273C104.779 96.3519 118.218 65.2071 107.297 37.7087C96.3766 10.2103 65.2317 -3.22857 37.7334 7.69213C10.235 18.6128 -3.20391 49.7577 7.7168 77.256C18.6375 104.754 49.7823 118.193 77.2807 107.273Z" fill="url(#paint1_linear_75_1056)"/>
<path d="M57.4254 92.0443C38.2957 92.0443 22.7488 76.4958 22.7488 57.3677C22.7488 38.2578 38.2973 22.7109 57.4254 22.7109C76.5535 22.7109 92.1021 38.2594 92.1021 57.3677C92.1021 76.4974 76.5338 92.0443 57.4254 92.0443ZM57.4254 24.6878C39.4042 24.6878 24.7256 39.3461 24.7256 57.3677C24.7256 75.3893 39.3839 90.0675 57.4254 90.0675C75.4669 90.0675 90.1252 75.4092 90.1252 57.3677C90.1252 39.3663 75.4472 24.6878 57.4254 24.6878Z" fill="#6990AF"/>
<path d="M57.4256 64.1116C53.7264 64.1116 50.6997 61.085 50.6997 57.3857C50.6997 53.6863 53.7262 50.6797 57.4256 50.6797C61.1445 50.6797 64.1515 53.6865 64.1515 57.3857C64.1515 61.0848 61.1249 64.1116 57.4256 64.1116ZM57.4256 52.6381C54.8143 52.6381 52.678 54.7547 52.678 57.366C52.678 59.997 54.8143 62.1136 57.4256 62.1136C60.0369 62.1136 62.1732 59.9773 62.1732 57.366C62.1732 54.7746 60.0369 52.6381 57.4256 52.6381Z" fill="#6990AF"/>
<path d="M57.4256 43.2222C56.8717 43.2222 56.4365 42.7871 56.4365 42.2332V9.9891C56.4365 9.43521 56.8717 9 57.4256 9C57.9795 9 58.4147 9.43519 58.4147 9.9891V42.2332C58.4147 42.7673 57.9597 43.2222 57.4256 43.2222Z" fill="#6990AF"/>
<path d="M104.842 58.3766H72.598C72.0441 58.3766 71.6089 57.9414 71.6089 57.3875C71.6089 56.8336 72.0441 56.3984 72.598 56.3984H104.862C105.416 56.3984 105.851 56.8336 105.851 57.3875C105.851 57.9414 105.396 58.3766 104.842 58.3766Z" fill="#6990AF"/>
<path d="M57.4256 105.774C56.8717 105.774 56.4365 105.338 56.4365 104.784V72.5404C56.4365 71.9865 56.8717 71.5513 57.4256 71.5513C57.9795 71.5513 58.4147 71.9865 58.4147 72.5404V104.784C58.4147 105.338 57.9597 105.774 57.4256 105.774Z" fill="#6990AF"/>
<path d="M42.253 58.3766H9.9891C9.43521 58.3766 9 57.9414 9 57.3875C9 56.8336 9.43519 56.3984 9.9891 56.3984H42.253C42.8069 56.3984 43.2421 56.8336 43.2421 57.3875C43.2421 57.9414 42.8069 58.3766 42.253 58.3766Z" fill="#6990AF"/>
</g>
<defs>
<radialGradient id="paint0_radial_75_1056" cx="0" cy="0" r="1" gradientUnits="userSpaceOnUse" gradientTransform="translate(49.3938 22.0309) scale(149.424)">
<stop stop-color="white"/>
<stop offset="1" stop-color="#C4BBBB"/>
</radialGradient>
<linearGradient id="paint1_linear_75_1056" x1="3.91796" y1="57.5079" x2="111.055" y2="57.5079" gradientUnits="userSpaceOnUse">
<stop stop-color="#C4BBBB"/>
<stop offset="1" stop-color="white"/>
</linearGradient>
<clipPath id="clip0_75_1056">
<rect width="115" height="115" fill="white"/>
</clipPath>
</defs>
</svg>
