<svg width="115" height="115" viewBox="0 0 115 115" fill="none" xmlns="http://www.w3.org/2000/svg">
<g clip-path="url(#clip0_75_1079)">
<path d="M57.5 115C89.2564 115 115 89.2564 115 57.5C115 25.7436 89.2564 0 57.5 0C25.7436 0 0 25.7436 0 57.5C0 89.2564 25.7436 115 57.5 115Z" fill="url(#paint0_radial_75_1079)"/>
<path d="M77.2807 107.273C104.779 96.3519 118.218 65.2071 107.297 37.7087C96.3766 10.2103 65.2317 -3.22857 37.7334 7.69213C10.235 18.6128 -3.20391 49.7577 7.7168 77.256C18.6375 104.754 49.7823 118.193 77.2807 107.273Z" fill="url(#paint1_linear_75_1079)"/>
<path fill-rule="evenodd" clip-rule="evenodd" d="M57.5047 20C36.8021 20 20 36.8005 20 57.4953C20 78.1979 36.8021 95 57.5047 95C78.2074 95 95 78.1979 95 57.4953C95 36.8021 78.2074 20 57.5047 20ZM57.5047 21.7685C77.252 21.7685 93.2314 37.7573 93.2314 57.4951C93.2314 77.2423 77.2504 93.2312 57.5047 93.2312C37.7575 93.2312 21.7686 77.2423 21.7686 57.4951C21.7686 37.7573 37.7575 21.7685 57.5047 21.7685Z" fill="#6990AF"/>
<path fill-rule="evenodd" clip-rule="evenodd" d="M71.7439 67.4322C71.3566 67.4328 71.0142 67.6857 70.9001 68.0559C69.0705 73.7026 63.7686 77.7905 57.5039 77.7905C51.2384 77.7905 45.9372 73.7019 44.1076 68.0559C44.0379 67.8288 43.8806 67.6395 43.6703 67.5303C43.4599 67.4205 43.2144 67.4001 42.9893 67.4735C42.7635 67.5463 42.5766 67.7067 42.4705 67.9189C42.365 68.1311 42.3484 68.3766 42.4249 68.6011C44.4864 74.9634 50.4687 79.5596 57.5038 79.5596C64.5391 79.5596 70.5214 74.964 72.5828 68.6011C72.6747 68.331 72.6303 68.033 72.4637 67.8011C72.2972 67.5691 72.0295 67.4316 71.7439 67.4322Z" fill="#6990AF"/>
<path fill-rule="evenodd" clip-rule="evenodd" d="M47.6003 45.6807C44.8664 45.6807 42.613 47.8341 42.4638 50.5402C42.4465 50.7764 42.5254 51.0096 42.6821 51.1879C42.8388 51.3655 43.0603 51.4729 43.2971 51.4864C43.5334 51.4994 43.7659 51.4167 43.9411 51.257C44.1163 51.0978 44.2199 50.8745 44.2298 50.6376C44.3285 48.8513 45.7886 47.4492 47.6003 47.4492C49.4225 47.4492 50.8813 48.8507 50.98 50.6376H50.9794C50.9887 50.8745 51.0929 51.0978 51.2681 51.257C51.4433 51.4167 51.6752 51.4994 51.9121 51.4864C52.149 51.4729 52.3704 51.3655 52.5271 51.1879C52.6838 51.0096 52.7621 50.7764 52.7454 50.5402C52.5962 47.834 50.3409 45.6807 47.6003 45.6807Z" fill="#6990AF"/>
<path fill-rule="evenodd" clip-rule="evenodd" d="M67.4091 45.6807C64.6685 45.6807 62.4125 47.8341 62.2639 50.5402C62.2473 50.7764 62.3256 51.0096 62.4823 51.1879C62.639 51.3655 62.8604 51.4729 63.0973 51.4864C63.3342 51.4994 63.5661 51.4167 63.7413 51.257C63.9165 51.0978 64.0207 50.8745 64.03 50.6376C64.1287 48.8513 65.5875 47.4492 67.4097 47.4492C69.2214 47.4492 70.6821 48.8507 70.7802 50.6376C70.7894 50.8745 70.8931 51.0978 71.0682 51.257C71.2441 51.4167 71.476 51.4994 71.7122 51.4864C71.9491 51.4729 72.1706 51.3655 72.3272 51.1879C72.4839 51.0096 72.5629 50.7764 72.5456 50.5402C72.3963 47.834 70.1429 45.6807 67.4091 45.6807Z" fill="#6990AF"/>
</g>
<defs>
<radialGradient id="paint0_radial_75_1079" cx="0" cy="0" r="1" gradientUnits="userSpaceOnUse" gradientTransform="translate(49.3938 22.0309) scale(149.424)">
<stop stop-color="white"/>
<stop offset="1" stop-color="#C4BBBB"/>
</radialGradient>
<linearGradient id="paint1_linear_75_1079" x1="3.91796" y1="57.5079" x2="111.055" y2="57.5079" gradientUnits="userSpaceOnUse">
<stop stop-color="#C4BBBB"/>
<stop offset="1" stop-color="white"/>
</linearGradient>
<clipPath id="clip0_75_1079">
<rect width="115" height="115" fill="white"/>
</clipPath>
</defs>
</svg>
