<svg width="115" height="115" viewBox="0 0 115 115" fill="none" xmlns="http://www.w3.org/2000/svg">
<g clip-path="url(#clip0_75_1091)">
<path d="M57.5 115C89.2564 115 115 89.2564 115 57.5C115 25.7436 89.2564 0 57.5 0C25.7436 0 0 25.7436 0 57.5C0 89.2564 25.7436 115 57.5 115Z" fill="url(#paint0_radial_75_1091)"/>
<path d="M77.2807 107.273C104.779 96.3519 118.218 65.2071 107.297 37.7087C96.3766 10.2103 65.2317 -3.22857 37.7334 7.69213C10.235 18.6128 -3.20391 49.7577 7.7168 77.256C18.6375 104.754 49.7823 118.193 77.2807 107.273Z" fill="url(#paint1_linear_75_1091)"/>
<path d="M33.1111 84.0002H82.8889C83.7139 83.9992 84.5046 83.671 85.088 83.0881C85.6708 82.5048 85.9991 81.714 86 80.889V53.9261C85.9991 53.1011 85.6708 52.3103 85.088 51.727C84.5046 51.1441 83.7139 50.8159 82.8889 50.8149H64.2222C63.6495 50.8149 63.1852 51.2793 63.1852 51.852C63.1852 52.4247 63.6495 52.889 64.2222 52.889H82.8889C83.1639 52.889 83.4277 52.9983 83.6222 53.1927C83.8166 53.3872 83.9259 53.651 83.9259 53.926V80.889C83.9259 81.164 83.8166 81.4279 83.6222 81.6223C83.4277 81.8167 83.1639 81.926 82.8889 81.926H33.1111C32.5385 81.926 32.0741 81.4617 32.0741 80.889V53.926C32.0741 53.3534 32.5385 52.889 33.1111 52.889H51.7778C52.3505 52.889 52.8148 52.4247 52.8148 51.852C52.8148 51.2793 52.3505 50.8149 51.7778 50.8149H33.1111C32.2861 50.8159 31.4954 51.1441 30.912 51.727C30.3292 52.3103 30.0009 53.1011 30 53.9261V80.889C30.0009 81.714 30.3292 82.5048 30.912 83.0881C31.4954 83.671 32.2861 83.9992 33.1111 84.0002Z" fill="#6990AF"/>
<path d="M58 69.4818C58.275 69.4818 58.5389 69.3726 58.7333 69.1781C58.9278 68.9837 59.037 68.7198 59.037 68.4448V31.5406L63.4888 35.9923V35.9928C63.8958 36.3859 64.5425 36.3798 64.9426 35.9798C65.3426 35.5798 65.3486 34.9331 64.9555 34.5261L58.7333 28.3039C58.3514 27.9219 57.7403 27.8969 57.3286 28.2465C57.3055 28.2673 57.2828 28.2881 57.262 28.3085L51.0444 34.5261C50.6513 34.933 50.6573 35.5798 51.0573 35.9798C51.4573 36.3799 52.1041 36.3859 52.5111 35.9928L56.9629 31.5406V68.4448C56.9629 68.7198 57.0721 68.9837 57.2666 69.1781C57.461 69.3726 57.725 69.4818 58 69.4818Z" fill="#6990AF"/>
</g>
<defs>
<radialGradient id="paint0_radial_75_1091" cx="0" cy="0" r="1" gradientUnits="userSpaceOnUse" gradientTransform="translate(49.3938 22.0309) scale(149.424)">
<stop stop-color="white"/>
<stop offset="1" stop-color="#C4BBBB"/>
</radialGradient>
<linearGradient id="paint1_linear_75_1091" x1="3.91796" y1="57.5079" x2="111.055" y2="57.5079" gradientUnits="userSpaceOnUse">
<stop stop-color="#C4BBBB"/>
<stop offset="1" stop-color="white"/>
</linearGradient>
<clipPath id="clip0_75_1091">
<rect width="115" height="115" fill="white"/>
</clipPath>
</defs>
</svg>
