<svg width="115" height="115" viewBox="0 0 115 115" fill="none" xmlns="http://www.w3.org/2000/svg">
<g clip-path="url(#clip0_75_1066)">
<path d="M57.5 115C89.2564 115 115 89.2564 115 57.5C115 25.7436 89.2564 0 57.5 0C25.7436 0 0 25.7436 0 57.5C0 89.2564 25.7436 115 57.5 115Z" fill="url(#paint0_radial_75_1066)"/>
<path d="M77.2807 107.273C104.779 96.3519 118.218 65.2071 107.297 37.7087C96.3766 10.2103 65.2317 -3.22857 37.7334 7.69213C10.235 18.6128 -3.20391 49.7577 7.7168 77.256C18.6375 104.754 49.7823 118.193 77.2807 107.273Z" fill="url(#paint1_linear_75_1066)"/>
<path d="M59.0455 22.2576L58.2997 21L57.5544 22.2576C56.6738 23.7411 36 58.7239 36 70.6618C36 82.9581 46.0043 92.9627 58.2994 92.9627C70.597 92.9627 80.6019 82.9584 80.6019 70.6618C80.6013 58.7244 59.9263 23.7401 59.0459 22.2576H59.0455ZM58.2997 91.2273C46.9605 91.2273 37.7341 82.0002 37.7341 70.6618C37.7341 60.4355 54.5241 30.9225 58.2997 24.4182C62.0754 30.9234 78.8668 60.4355 78.8668 70.6618C78.8662 82.0015 69.6396 91.2273 58.2997 91.2273Z" fill="#6990AF"/>
<path d="M73.6095 66.4129C73.6095 78.9265 68.6018 85.0096 58.3005 85.0096V86.7447C69.6101 86.7447 75.3448 79.9032 75.3448 66.4126L73.6095 66.4129Z" fill="#6990AF"/>
</g>
<defs>
<radialGradient id="paint0_radial_75_1066" cx="0" cy="0" r="1" gradientUnits="userSpaceOnUse" gradientTransform="translate(49.3938 22.0309) scale(149.424)">
<stop stop-color="white"/>
<stop offset="1" stop-color="#C4BBBB"/>
</radialGradient>
<linearGradient id="paint1_linear_75_1066" x1="3.91796" y1="57.5079" x2="111.055" y2="57.5079" gradientUnits="userSpaceOnUse">
<stop stop-color="#C4BBBB"/>
<stop offset="1" stop-color="white"/>
</linearGradient>
<clipPath id="clip0_75_1066">
<rect width="115" height="115" fill="white"/>
</clipPath>
</defs>
</svg>
