<svg width="88" height="100" viewBox="0 0 88 100" fill="none" xmlns="http://www.w3.org/2000/svg">
<path d="M84.5228 15.2668H77.6794L77.6785 1.98185C77.6785 0.886764 76.7908 0 75.6966 0C74.6025 0 73.7148 0.886764 73.7148 1.98185V15.2668H66.8723C65.0499 15.2668 63.5686 16.749 63.5686 18.5705V96.6963C63.5686 98.5187 65.0499 100 66.8723 100H84.5229C86.3453 100 87.8266 98.5187 87.8266 96.6963V18.5705C87.8266 16.749 86.3443 15.2668 84.5228 15.2668ZM83.8619 96.0355H67.5333V19.2313H83.8619V96.0355ZM52.755 15.2668H45.9126V1.98185C45.9126 0.886764 45.0258 0 43.9307 0C42.8356 0 41.9489 0.886764 41.9489 1.98185V15.2668H35.1055C33.284 15.2668 31.8017 16.749 31.8017 18.5705V96.6963C31.8017 98.5187 33.284 100 35.1055 100H52.7551C54.5766 100 56.0588 98.5187 56.0588 96.6963V18.5705C56.0588 16.749 54.5765 15.2668 52.755 15.2668ZM52.0941 96.0355H35.7664V19.2313H52.0941V96.0355ZM20.9896 15.2668H14.1462L14.1471 1.98185C14.1471 0.886764 13.2604 0 12.1653 0C11.0702 0 10.1834 0.886764 10.1834 1.98185L10.1825 15.2668H3.33912C1.51764 15.2668 0.0354004 16.749 0.0354004 18.5705V96.6963C0.0354004 98.5187 1.51764 100 3.33912 100H20.9897C22.8112 100 24.2934 98.5187 24.2934 96.6963V18.5705C24.2934 16.749 22.8111 15.2668 20.9896 15.2668ZM20.3287 96.0355H4.00009V19.2313H20.3287V96.0355Z" fill="#1E2328"/>
<rect y="29.6603" width="22.1231" height="3.71668" fill="#1E2328"/>
<rect x="32.7422" y="29.6603" width="22.1231" height="3.71668" fill="#1E2328"/>
<rect x="65.4844" y="29.6603" width="22.1231" height="3.71668" fill="#1E2328"/>
</svg>
