<svg width="93" height="102" viewBox="0 0 93 102" fill="none" xmlns="http://www.w3.org/2000/svg">
<path d="M29.9167 76.9286L29.8543 76.9122C29.4843 76.8151 29.202 76.5483 29.021 76.2559C28.8373 75.9591 28.7285 75.5924 28.7311 75.2155C28.7315 67.0013 31.2784 59.5301 35.4167 54.1018C39.5553 48.673 45.3077 45.2652 51.6973 45.2649L29.9167 76.9286ZM29.9167 76.9286H29.9812M29.9167 76.9286H29.9812M29.9812 76.9286H73.2117C73.6617 76.937 74.0312 76.6786 74.2674 76.3764C74.5094 76.0666 74.6616 75.654 74.6646 75.2209V75.2175M29.9812 76.9286L74.6646 75.2175M74.6646 75.2175C74.6646 67.0021 72.1177 59.5302 67.979 54.1015M74.6646 75.2175L67.979 54.1015M67.979 54.1015C63.8404 48.6728 58.0881 45.2652 51.6984 45.2649L67.979 54.1015ZM22.0713 0.502902V0.5H21.5713C15.7777 0.5 11.0818 5.15563 11.0818 10.8822V15.1089H6.64604C3.14643 15.1089 0.5 18.1796 0.5 21.7028C0.5 25.2303 3.1516 28.2573 6.64604 28.2573H11.0818V44.5622H6.64604C3.14643 44.5622 0.5 47.6329 0.5 51.156C0.5 54.6836 3.1516 57.7106 6.64604 57.7106H11.0818V74.0154H6.64604C3.14643 74.0154 0.5 77.0862 0.5 80.6093C0.5 84.1368 3.1516 87.1639 6.64604 87.1639H11.0818V91.156C11.0818 96.885 15.7805 101.5 21.5713 101.5H81.8268C87.6178 101.5 92.3163 96.8862 92.3163 91.156V10.8851C92.3163 5.15853 87.6201 0.502902 81.8268 0.502902H22.0713ZM14.2138 91.1531V87.161H18.2944C21.79 87.161 24.4404 84.1339 24.4404 80.6064C24.4404 77.0832 21.7928 74.0125 18.2944 74.0125H14.2138V57.7077H18.2944C21.79 57.7077 24.4404 54.6806 24.4404 51.1531C24.4404 47.6299 21.7928 44.5593 18.2944 44.5593H14.2138V28.2544H18.2944C21.79 28.2544 24.4404 25.2273 24.4404 21.6999C24.4404 18.1767 21.7928 15.106 18.2944 15.106H14.2138V10.8793C14.2138 6.93128 17.3539 3.75753 21.358 3.6484H21.5713H81.8268C85.9324 3.6484 89.1843 6.86541 89.1843 10.8822V91.1531C89.1843 95.1709 85.9322 98.3869 81.8268 98.3869H21.5713C17.4658 98.3869 14.2138 95.1699 14.2138 91.1531ZM6.64604 18.2582H18.2944C19.8848 18.2582 21.3084 19.6776 21.3084 21.7036C21.3084 23.7295 19.8847 25.1491 18.2944 25.1491H6.64604C5.05561 25.1491 3.63201 23.7297 3.63201 21.7036C3.63201 19.6778 5.05568 18.2582 6.64604 18.2582ZM51.6984 21.7503C45.4832 21.7503 40.4192 26.7525 40.4192 32.9137C40.4192 39.0761 45.4844 44.0771 51.6984 44.0771C57.9126 44.0771 62.9776 39.075 62.9776 32.9137C62.9776 26.7513 57.9123 21.7503 51.6984 21.7503ZM51.6984 24.8594C56.2097 24.8594 59.8456 28.4632 59.8456 32.9138C59.8456 37.3652 56.2097 40.9681 51.6984 40.9681C47.187 40.9681 43.5512 37.3652 43.5512 32.9138C43.5512 28.4623 47.187 24.8594 51.6984 24.8594ZM6.64604 47.7105H18.2944C19.8848 47.7105 21.3084 49.13 21.3084 51.156C21.3084 53.1818 19.8847 54.6014 18.2944 54.6014H6.64604C5.05561 54.6014 3.63201 53.182 3.63201 51.156C3.63201 49.1301 5.05568 47.7105 6.64604 47.7105ZM51.6984 48.7655C62.2505 48.7655 70.9754 59.5392 71.6705 73.4682H31.687C32.3812 59.5384 41.143 48.7655 51.6979 48.7655H51.6984ZM6.64604 77.1646H18.2944C19.8848 77.1646 21.3084 78.584 21.3084 80.6101C21.3084 82.6361 19.8848 84.0555 18.2944 84.0555H6.64604C5.05561 84.0555 3.63201 82.6361 3.63201 80.6101C3.63201 78.584 5.05567 77.1646 6.64604 77.1646Z" fill="#1E2328" stroke="#1E2328"/>
</svg>
