<svg width="83" height="102" viewBox="0 0 83 102" fill="none" xmlns="http://www.w3.org/2000/svg">
<path d="M2.25119 101H80.9996C81.6901 101 82.2499 100.44 82.2499 99.7497L82.249 25.4521C82.249 25.4242 82.2351 25.4007 82.2333 25.3736C82.2263 25.2603 82.2045 25.1522 82.1671 25.0449C82.1531 25.0039 82.1418 24.9638 82.1235 24.9255C82.0659 24.8016 81.9918 24.6857 81.8933 24.5845C81.8881 24.5793 81.8854 24.5723 81.8802 24.5671C81.8793 24.5662 81.8785 24.5645 81.8776 24.5636L58.3848 1.36097C58.2801 1.25808 58.1581 1.1831 58.029 1.12294C57.9915 1.1055 57.9514 1.09591 57.9122 1.08196C57.8058 1.04534 57.6977 1.02354 57.5852 1.01569C57.5573 1.01395 57.5338 1 57.5059 1H2.25033C1.55977 1 1 1.55976 1 2.25033V99.7483C1 100.438 1.5589 100.998 2.25033 100.998L2.25119 101ZM58.7567 5.24305L77.9554 24.2027H58.7567V5.24305ZM3.50116 3.50184H56.2568V25.4532C56.2568 26.1437 56.8157 26.7035 57.5071 26.7035H79.7504V98.5011H3.50196L3.50116 3.50184Z" fill="#1E2328" stroke="#1E2328" stroke-width="1.2"/>
<path d="M41.7103 39.171C34.3408 39.171 28.3447 45.1662 28.3447 52.5357C28.3447 59.9052 34.3408 65.9004 41.7103 65.9004C49.0798 65.9004 55.0741 59.9052 55.0741 52.5357C55.0741 45.1662 49.0798 39.171 41.7103 39.171ZM41.7103 63.4004C35.7194 63.4004 30.8453 58.5264 30.8453 52.5355C30.8453 46.5445 35.7194 41.6705 41.7103 41.6705C47.7004 41.6705 52.5744 46.5445 52.5744 52.5355C52.5744 58.5273 47.7004 63.4004 41.7103 63.4004Z" fill="#1E2328" stroke="#1E2328" stroke-width="1.2"/>
<path d="M70.0712 41.9521L65.0124 33.1912C64.5512 32.3916 63.8048 31.8196 62.9129 31.5807C62.0191 31.341 61.0888 31.4639 60.291 31.9251L56.54 34.091C54.6043 32.5224 52.4577 31.2817 50.1401 30.3915V26.065C50.1401 24.1599 48.5899 22.6097 46.6848 22.6097H36.5681C34.6629 22.6097 33.1128 24.16 33.1128 26.065V30.3915C30.7943 31.2817 28.6486 32.5225 26.7129 34.091L22.9619 31.9251C22.1624 31.463 21.232 31.3401 20.3401 31.5799C19.4481 31.8188 18.7018 32.3907 18.2405 33.1903L13.1817 41.9522C12.2304 43.6027 12.798 45.7197 14.4477 46.6726L18.1943 48.8358C18.0016 50.0652 17.9039 51.305 17.9039 52.5335C17.9039 53.7612 18.0016 55.002 18.1943 56.2312L14.4477 58.3944C12.7989 59.3465 12.2313 61.4635 13.1817 63.1148L18.2405 71.8758C18.7018 72.6754 19.4481 73.2465 20.3401 73.4862C21.232 73.7251 22.1624 73.6022 22.9619 73.1418L26.7129 70.976C28.6486 72.5446 30.7952 73.7853 33.1128 74.6755V79.0019C33.1128 80.9071 34.6631 82.4572 36.5681 82.4572H46.6848C48.59 82.4572 50.1401 80.907 50.1401 79.0019V74.6755C52.4586 73.7852 54.6043 72.5445 56.54 70.976L60.291 73.1418C61.0906 73.6048 62.0209 73.7277 62.9129 73.4871C63.8048 73.2482 64.5512 72.6762 65.0124 71.8767L70.0712 63.1148C71.0225 61.4643 70.4549 59.3473 68.8052 58.3944L65.0586 56.2312C65.2513 55.0018 65.349 53.762 65.349 52.5335C65.349 51.3058 65.2513 50.065 65.0586 48.8358L68.8052 46.6726C70.4549 45.7196 71.0225 43.6025 70.0712 41.9521ZM67.5557 44.5068L63.0513 47.1076C62.5883 47.3753 62.3468 47.9063 62.4497 48.4303C62.7156 49.7896 62.8499 51.1697 62.8499 52.5327C62.8499 53.8955 62.7156 55.2757 62.4497 56.635C62.3468 57.1591 62.5892 57.6901 63.0513 57.9577L67.5557 60.5577C68.0126 60.821 68.1695 61.4078 67.9062 61.8638L62.8473 70.6248C62.5849 71.0799 61.9998 71.2421 61.5412 70.9744L57.0308 68.37C56.5704 68.1032 55.9863 68.1599 55.5834 68.5113C53.4908 70.3397 51.1036 71.7208 48.486 72.6145C47.9803 72.7872 47.6403 73.2624 47.6403 73.7977V79.0005C47.6403 79.5272 47.2121 79.9561 46.6847 79.9561H36.5679C36.0404 79.9561 35.6123 79.5271 35.6123 79.0005V73.7977C35.6123 73.2632 35.2714 72.7872 34.7665 72.6145C32.149 71.7208 29.7617 70.3398 27.6691 68.5113C27.4363 68.3072 27.1416 68.2026 26.8461 68.2026C26.6316 68.2026 26.4153 68.2575 26.2209 68.37L21.7105 70.9753C21.2527 71.2404 20.6694 71.08 20.4044 70.6248L15.3455 61.8638C15.0822 61.407 15.2392 60.821 15.696 60.5577L20.2004 57.9569C20.6634 57.6892 20.9049 57.1582 20.802 56.6342C20.5361 55.2749 20.4018 53.8947 20.4018 52.5318C20.4018 51.1689 20.5361 49.7888 20.802 48.4294C20.9049 47.9054 20.6625 47.3744 20.2004 47.1067L15.696 44.5068C15.2392 44.2435 15.0822 43.6567 15.3455 43.2007L20.4044 34.4397C20.5317 34.2191 20.7374 34.0604 20.9851 33.9941C21.2292 33.9287 21.4881 33.9619 21.7105 34.09L26.2209 36.6944C26.6821 36.9621 27.2672 36.9046 27.6683 36.5532C29.7609 34.7248 32.1481 33.3437 34.7657 32.4499C35.2714 32.2773 35.6114 31.8021 35.6114 31.2667V26.064C35.6114 25.5373 36.0395 25.1083 36.567 25.1083H46.6838C47.2113 25.1083 47.6394 25.5373 47.6394 26.064V31.2667C47.6394 31.8012 47.9803 32.2773 48.4852 32.4499C51.1027 33.3436 53.49 34.7247 55.5826 36.5532C55.9854 36.9054 56.5704 36.9621 57.0299 36.6944L61.5403 34.0891C61.7627 33.9618 62.0225 33.9287 62.2658 33.9941C62.5134 34.0604 62.72 34.2191 62.8465 34.4397L67.9053 43.2006C68.1695 43.6575 68.0117 44.2443 67.5557 44.5068Z" fill="#1E2328" stroke="#1E2328" stroke-width="1.2"/>
</svg>
