<svg width="115" height="118" viewBox="0 0 115 118" fill="none" xmlns="http://www.w3.org/2000/svg">
<path d="M83.0556 0C65.4385 0 51.1111 14.1761 51.1111 31.6071C51.1111 49.0381 65.4385 63.2142 83.0556 63.2142C100.673 63.2142 115 49.0381 115 31.6071C115 14.1761 100.673 0 83.0556 0ZM83.0556 4.21524C98.3709 4.21524 110.741 16.4535 110.741 31.6081C110.741 46.7626 98.3719 59.0009 83.0556 59.0009C67.7393 59.0009 55.3704 46.7626 55.3704 31.6081C55.3704 16.4535 67.7393 4.21524 83.0556 4.21524Z" fill="#1E2328"/>
<path d="M83.0166 37.9285C81.8472 37.9078 80.9136 36.9587 80.9269 35.8035V14.7519C80.925 14.1931 81.1485 13.6569 81.5478 13.2609C81.948 12.8658 82.4899 12.6438 83.0566 12.6438C83.6222 12.6438 84.1651 12.8658 84.5644 13.2609C84.9637 13.6569 85.1871 14.1931 85.1852 14.7519V35.8035C85.1919 36.3717 84.9656 36.9182 84.5568 37.319C84.148 37.7197 83.5928 37.9398 83.0166 37.9285Z" fill="#1E2328"/>
<path d="M87.3148 46.3571C87.3148 44.0298 85.4077 42.1428 83.0556 42.1428C80.7034 42.1428 78.7963 44.0298 78.7963 46.3571C78.7963 48.6844 80.7034 50.5714 83.0556 50.5714C85.4077 50.5714 87.3148 48.6844 87.3148 46.3571Z" fill="#1E2328"/>
<path d="M12.7778 16.8571C5.73564 16.8571 0 22.536 0 29.5038V105.361C0.000950667 105.432 0.00380297 105.504 0.0161624 105.575C0.135955 112.441 5.8146 118 12.7815 118H83.0544C84.2353 118.002 85.1926 117.053 85.1879 115.884V69.5345V69.5355C85.1879 68.9767 84.9635 68.4405 84.5642 68.0454C84.1649 67.6503 83.623 67.4283 83.0582 67.4283C81.8822 67.4283 80.9286 68.3718 80.9286 69.5355V92.714H12.7805C9.50618 92.714 6.52665 93.952 4.26194 95.965V29.5046C4.26194 24.7993 8.02493 21.0722 12.7805 21.0722H46.9251C48.1012 21.0722 49.0547 20.1287 49.0547 18.9651C49.0547 17.8014 48.1012 16.8579 46.9251 16.8579L12.7778 16.8571ZM12.7778 96.9285H80.9259V113.786H12.7778C8.02225 113.786 4.25926 110.061 4.25926 105.357C4.25926 100.653 8.02225 96.9285 12.7778 96.9285Z" fill="#1E2328"/>
</svg>
